<svg version="1.1" id="Layer_1" xmlns="http://www.w3.org/2000/svg" xmlns:xlink="http://www.w3.org/1999/xlink" x="0px" y="0px"
	 width="100%" viewBox="0 0 1080 1080" enable-background="new 0 0 1080 1080" xml:space="preserve">
<path fill="#000000" opacity="1.000000" stroke="none" 
	d="
M718.000000,1081.000000 
	C478.694214,1081.000000 239.888458,1081.000000 1.041340,1081.000000 
	C1.041340,721.069092 1.041340,361.138214 1.041340,1.103653 
	C360.889343,1.103653 720.778687,1.103653 1080.833984,1.103653 
	C1080.833984,360.999939 1080.833984,720.999939 1080.833984,1081.000000 
	C960.137756,1081.000000 839.318909,1081.000000 718.000000,1081.000000 
M518.499939,981.833618 
	C531.166626,981.834045 543.833374,981.870789 556.499878,981.822266 
	C565.249329,981.788757 568.222412,979.589966 571.136169,971.257202 
	C625.093506,816.951660 679.049622,662.645752 733.012024,508.341919 
	C734.311462,504.626099 735.680359,500.934540 737.309265,496.421631 
	C741.463318,508.153107 745.276611,518.931458 749.096191,529.707581 
	C801.379456,677.217102 853.662354,824.726807 905.951172,972.234436 
	C908.478027,979.362732 911.576599,981.806885 918.725220,981.813354 
	C966.724548,981.856934 1014.723938,981.837158 1062.723267,981.830933 
	C1071.185547,981.829834 1077.988403,977.289185 1073.535400,965.866455 
	C989.041626,749.123108 904.798523,532.282043 820.497620,315.463440 
	C796.738831,254.356705 772.948425,193.262253 749.226013,132.141388 
	C747.723755,128.270828 745.936523,124.885933 741.744568,123.384239 
	C734.588623,120.820778 728.342041,124.217690 725.142578,132.478043 
	C617.501099,410.383820 509.859924,688.289734 402.220093,966.196167 
	C398.366791,976.144653 401.280457,980.798645 412.003723,981.775696 
	C413.492310,981.911377 415.001556,981.832092 416.501251,981.832214 
	C450.167450,981.834351 483.833679,981.833679 518.499939,981.833618 
M123.396263,981.831848 
	C140.079330,979.886047 156.936829,978.877747 173.411621,975.812622 
	C216.814987,967.737427 257.114563,952.025024 292.634491,925.061890 
	C327.223999,898.804993 351.331726,865.060486 365.698669,824.271606 
	C376.945221,792.341858 380.855438,759.231934 380.845917,725.534241 
	C380.817322,624.375793 380.834564,523.217346 380.833954,422.058929 
	C380.833954,420.439636 380.833984,418.820374 380.833984,417.016998 
	C326.219971,417.016998 272.105927,417.016998 217.491272,417.016998 
	C217.491272,418.917114 217.491272,420.712372 217.491272,422.507629 
	C217.491364,521.999512 217.458801,621.491455 217.526321,720.983337 
	C217.536606,736.121704 215.522903,750.882324 210.204300,765.063904 
	C202.601959,785.335022 190.519760,801.886475 170.832245,812.210388 
	C155.500702,820.250122 139.070129,822.777405 122.082924,822.812439 
	C88.752449,822.881042 55.421730,822.827026 22.091112,822.836975 
	C19.926640,822.837646 17.740761,822.777588 15.601803,823.043335 
	C9.485427,823.803162 6.021624,827.616333 6.017174,833.735413 
	C5.984087,879.231689 6.012730,924.728027 5.978872,970.224304 
	C5.975367,974.934937 8.141357,978.341370 12.258922,980.085205 
	C14.918806,981.211731 18.022171,981.753235 20.929390,981.762756 
	C54.759609,981.873718 88.590317,981.833496 123.396263,981.831848 
M89.509293,269.839691 
	C186.557358,269.839691 283.605408,269.839691 380.836273,269.839691 
	C380.836273,267.569061 380.836273,265.917694 380.836273,264.266357 
	C380.836639,221.285278 380.845337,178.304199 380.830780,135.323120 
	C380.827637,126.075615 377.463867,122.692078 368.219482,122.491249 
	C367.386902,122.473152 366.553619,122.487930 365.720642,122.487923 
	C271.262207,122.487885 176.803802,122.486885 82.345383,122.495209 
	C80.515472,122.495377 78.685646,122.607475 76.855659,122.663322 
	C71.167885,122.836914 65.969063,127.859184 66.016357,134.487991 
	C66.308746,175.467865 66.161476,216.450867 66.165016,257.432831 
	C66.165672,265.011536 69.915993,269.183075 77.524246,269.737671 
	C81.170891,270.003479 84.850319,269.819641 89.509293,269.839691 
z"/>
<path fill="#FEFEFE" opacity="1.000000" stroke="none" 
	d="
M517.999878,981.833618 
	C483.833679,981.833679 450.167450,981.834351 416.501251,981.832214 
	C415.001556,981.832092 413.492310,981.911377 412.003723,981.775696 
	C401.280457,980.798645 398.366791,976.144653 402.220093,966.196167 
	C509.859924,688.289734 617.501099,410.383820 725.142578,132.478043 
	C728.342041,124.217690 734.588623,120.820778 741.744568,123.384239 
	C745.936523,124.885933 747.723755,128.270828 749.226013,132.141388 
	C772.948425,193.262253 796.738831,254.356705 820.497620,315.463440 
	C904.798523,532.282043 989.041626,749.123108 1073.535400,965.866455 
	C1077.988403,977.289185 1071.185547,981.829834 1062.723267,981.830933 
	C1014.723938,981.837158 966.724548,981.856934 918.725220,981.813354 
	C911.576599,981.806885 908.478027,979.362732 905.951172,972.234436 
	C853.662354,824.726807 801.379456,677.217102 749.096191,529.707581 
	C745.276611,518.931458 741.463318,508.153107 737.309265,496.421631 
	C735.680359,500.934540 734.311462,504.626099 733.012024,508.341919 
	C679.049622,662.645752 625.093506,816.951660 571.136169,971.257202 
	C568.222412,979.589966 565.249329,981.788757 556.499878,981.822266 
	C543.833374,981.870789 531.166626,981.834045 517.999878,981.833618 
z"/>
<path fill="#FEFEFE" opacity="1.000000" stroke="none" 
	d="
M122.908585,981.832581 
	C88.590317,981.833496 54.759609,981.873718 20.929390,981.762756 
	C18.022171,981.753235 14.918806,981.211731 12.258922,980.085205 
	C8.141357,978.341370 5.975367,974.934937 5.978872,970.224304 
	C6.012730,924.728027 5.984087,879.231689 6.017174,833.735413 
	C6.021624,827.616333 9.485427,823.803162 15.601803,823.043335 
	C17.740761,822.777588 19.926640,822.837646 22.091112,822.836975 
	C55.421730,822.827026 88.752449,822.881042 122.082924,822.812439 
	C139.070129,822.777405 155.500702,820.250122 170.832245,812.210388 
	C190.519760,801.886475 202.601959,785.335022 210.204300,765.063904 
	C215.522903,750.882324 217.536606,736.121704 217.526321,720.983337 
	C217.458801,621.491455 217.491364,521.999512 217.491272,422.507629 
	C217.491272,420.712372 217.491272,418.917114 217.491272,417.016998 
	C272.105927,417.016998 326.219971,417.016998 380.833984,417.016998 
	C380.833984,418.820374 380.833954,420.439636 380.833954,422.058929 
	C380.834564,523.217346 380.817322,624.375793 380.845917,725.534241 
	C380.855438,759.231934 376.945221,792.341858 365.698669,824.271606 
	C351.331726,865.060486 327.223999,898.804993 292.634491,925.061890 
	C257.114563,952.025024 216.814987,967.737427 173.411621,975.812622 
	C156.936829,978.877747 140.079330,979.886047 122.908585,981.832581 
z"/>
<path fill="#FDFDFD" opacity="1.000000" stroke="none" 
	d="
M89.012093,269.839600 
	C84.850319,269.819641 81.170891,270.003479 77.524246,269.737671 
	C69.915993,269.183075 66.165672,265.011536 66.165016,257.432831 
	C66.161476,216.450867 66.308746,175.467865 66.016357,134.487991 
	C65.969063,127.859184 71.167885,122.836914 76.855659,122.663322 
	C78.685646,122.607475 80.515472,122.495377 82.345383,122.495209 
	C176.803802,122.486885 271.262207,122.487885 365.720642,122.487923 
	C366.553619,122.487930 367.386902,122.473152 368.219482,122.491249 
	C377.463867,122.692078 380.827637,126.075615 380.830780,135.323120 
	C380.845337,178.304199 380.836639,221.285278 380.836273,264.266357 
	C380.836273,265.917694 380.836273,267.569061 380.836273,269.839691 
	C283.605408,269.839691 186.557358,269.839691 89.012093,269.839600 
z"/>
</svg>